HIERARCHY
ROOT root
{
	OFFSET	0	13.1	24.9
	CHANNELS 6  Xposition Yposition Zposition Xrotation Yrotation Zrotation
	JOINT spine_1
	{
		OFFSET	0	9.99999	0
		CHANNELS 3  Xrotation Yrotation Zrotation
		JOINT spine_2
		{
			OFFSET	0	112	-10
			CHANNELS 3  Xrotation Yrotation Zrotation
			JOINT spine_3
			{
				OFFSET	0	206.5	19.3
				CHANNELS 3  Xrotation Yrotation Zrotation
				JOINT spine_4
				{
					OFFSET	0	110.4	14.6
					CHANNELS 3  Xrotation Yrotation Zrotation
					JOINT neck_1
					{
						OFFSET	0	71.8	-50.3
						CHANNELS 3  Xrotation Yrotation Zrotation
						JOINT neck_2
						{
							OFFSET	0	86.2	-25.8
							CHANNELS 3  Xrotation Yrotation Zrotation
							JOINT head_ee
							{
								OFFSET	0	179.8	-8.7
								CHANNELS 3  Xrotation Yrotation Zrotation
								End Site
								{
									OFFSET	1	0	0
								}
							}
						}
					}
					JOINT left_clavicle
					{
						OFFSET	-43.2	22.4	-70.8
						CHANNELS 3  Xrotation Yrotation Zrotation
						JOINT left_shoulder
						{
							OFFSET	-93.9	-5.79999	48.7
							CHANNELS 3  Xrotation Yrotation Zrotation
							JOINT left_elbow
							{
								OFFSET	-291.4	-30.8	15.2
								CHANNELS 3  Xrotation Yrotation Zrotation
								JOINT left_lowarm_twist
								{
									OFFSET	-110.7	-3.89999	13.6
									CHANNELS 3  Xrotation Yrotation Zrotation
									JOINT left_hand
									{
										OFFSET	-110.7	-3.89999	13.6
										CHANNELS 3  Xrotation Yrotation Zrotation
										JOINT left_ee
										{
											OFFSET	-80.8	-5.10001	12.1
											CHANNELS 3  Xrotation Yrotation Zrotation
											End Site
											{
												OFFSET	1	0	0
											}
										}
									}
								}
							}
						}
					}
					JOINT right_clavicle
					{
						OFFSET	43.2	22.4	-70.8
						CHANNELS 3  Xrotation Yrotation Zrotation
						JOINT right_shoulder
						{
							OFFSET	93.9	-5.79999	48.7
							CHANNELS 3  Xrotation Yrotation Zrotation
							JOINT right_elbow
							{
								OFFSET	291.4	-30.8	15.2
								CHANNELS 3  Xrotation Yrotation Zrotation
								JOINT right_lowarm_twist
								{
									OFFSET	110.7	-3.89999	13.6
									CHANNELS 3  Xrotation Yrotation Zrotation
									JOINT right_hand
									{
										OFFSET	110.7	-3.89999	13.6
										CHANNELS 3  Xrotation Yrotation Zrotation
										JOINT right_ee
										{
											OFFSET	80.8	-5.10001	12.1
											CHANNELS 3  Xrotation Yrotation Zrotation
											End Site
											{
												OFFSET	1	0	0
											}
										}
									}
								}
							}
						}
					}
				}
			}
		}
	}
	JOINT left_hip
	{
		OFFSET	-82.8	-127.5	0.300001
		CHANNELS 3  Xrotation Yrotation Zrotation
		JOINT left_knee
		{
			OFFSET	-28.2	-396.7	2.2
			CHANNELS 3  Xrotation Yrotation Zrotation
			JOINT left_ankle
			{
				OFFSET	-11.7	-411.3	35.4
				CHANNELS 3  Xrotation Yrotation Zrotation
				JOINT left_toes
				{
					OFFSET	0	-60	-88.6
					CHANNELS 3  Xrotation Yrotation Zrotation
					JOINT left_foot_ee
					{
						OFFSET	-22.5	-16.5	-42.2
						CHANNELS 3  Xrotation Yrotation Zrotation
						End Site
						{
							OFFSET	1	0	0
						}
					}
				}
			}
		}
	}
	JOINT right_hip
	{
		OFFSET	82.8	-127.5	0.300001
		CHANNELS 3  Xrotation Yrotation Zrotation
		JOINT right_knee
		{
			OFFSET	28.2	-396.7	2.2
			CHANNELS 3  Xrotation Yrotation Zrotation
			JOINT right_ankle
			{
				OFFSET	11.7	-411.3	35.4
				CHANNELS 3  Xrotation Yrotation Zrotation
				JOINT right_toes
				{
					OFFSET	0	-60	-88.6
					CHANNELS 3  Xrotation Yrotation Zrotation
					JOINT right_foot_ee
					{
						OFFSET	22.5	-16.5	-42.2
						CHANNELS 3  Xrotation Yrotation Zrotation
						End Site
						{
							OFFSET	1	0	0
						}
					}
				}
			}
		}
	}
}
MOTION
Frames: 12
Frame Time: 0.02
1600.29 732.945 -1442.33 6.60824 74.9177 -10.5642 1.24229 0.508614 3.72814 1.24998 0.270523 3.7529 1.26905 -0.442074 3.7366 1.2496 0.153169 3.75951 -14.9459 14.0055 -8.65031 -15.7119 31.8605 -3.25036 -0.0 0.0 -0.0 -10.4495 16.4107 -15.0091 22.3181 -23.209 74.1876 1.9646 -44.2171 0.798148 -26.6794 -1.65832 2.94948 0.899584 14.9475 11.7758 -0.0 0.0 -0.0 7.82656 2.05569 -15.2576 -27.2442 36.0589 -69.5986 0.765371 20.7638 -0.140224 -57.1002 4.92448 -5.00179 -4.19949 -24.7421 14.1116 0.0 0.0 0.0 -0.570944 8.81995 4.47007 -17.6639 0.316131 2.68153 39.44 16.9218 -4.91352 -24.9174 0.0 0.0 -0.0 0.0 -0.0 16.1936 25.9781 -7.21425 -43.6418 0.714558 -6.50041 13.2164 -19.6457 1.898 -11.6961 0.0 0.0 0.0 0.0 0.0 
1581.61 735.813 -1443.36 5.26371 73.8986 -8.78432 1.23053 0.444743 3.7652 1.23839 0.204428 3.78583 1.25321 -0.514386 3.75633 1.23354 0.0848702 3.79039 -16.0281 14.5968 -8.04372 -17.0309 32.5467 -2.07818 -0.0 0.0 -0.0 -10.2186 15.8238 -14.8463 24.1469 -22.8909 73.485 1.9861 -44.5287 0.813183 -26.5165 -1.64419 2.9341 0.735343 14.3766 10.5263 -0.0 0.0 -0.0 7.63963 0.759923 -14.8722 -28.1253 36.0219 -69.3842 0.687692 18.8121 -0.113923 -57.1608 4.93192 -5.00405 -4.10784 -23.8317 14.1593 0.0 0.0 0.0 -2.07137 9.652 4.83598 -15.3727 0.322044 2.33006 37.295 17.3832 -4.71963 -26.0686 0.0 0.0 -0.0 0.0 -0.0 21.3068 22.1197 -7.80458 -43.4775 0.702693 -6.4781 13.2484 -16.9517 1.88568 -11.9738 0.0 0.0 0.0 0.0 0.0 
1573.07 730.625 -1445.16 2.32811 73.3399 -5.81941 1.25263 0.500471 3.7953 1.26061 0.258132 3.81941 1.27917 -0.466167 3.79966 1.25905 0.139315 3.82558 -17.4847 14.5384 -8.71924 -18.6724 32.6733 -2.26564 -0.0 0.0 -0.0 -10.1532 15.4219 -14.8932 26.1739 -22.8145 71.7655 2.12625 -46.4807 0.913169 -26.2245 -1.61897 2.90645 0.413765 14.2711 8.45292 -0.0 0.0 -0.0 7.7739 -0.573109 -15.1256 -28.8503 35.8535 -68.0499 0.644849 17.7156 -0.100495 -57.054 4.91882 -5.00006 -4.00094 -22.4354 14.4088 0.0 0.0 0.0 -3.25188 9.85046 5.17371 -11.6762 0.301958 1.76337 37.3364 16.4451 -4.70787 -26.9982 0.0 0.0 -0.0 0.0 -0.0 25.4753 20.5167 -8.5367 -44.0311 0.742932 -6.55316 14.2139 -16.7276 2.01467 -11.0901 0.0 0.0 0.0 0.0 0.0 
1566.84 730.974 -1444.11 0.94586 72.3059 -4.09449 1.33064 0.426299 3.68994 1.33819 0.190799 3.70956 1.35159 -0.507032 3.67973 1.33271 0.0800613 3.71359 -17.6278 14.6537 -9.09788 -18.8566 33.0834 -2.51763 -0.0 0.0 -0.0 -9.61889 14.8236 -14.1864 27.0987 -22.6533 70.5934 2.15453 -46.8583 0.933738 -26.2891 -1.62454 2.91258 0.408473 14.0104 8.3206 -0.0 0.0 -0.0 7.79915 -0.999353 -15.1686 -29.2261 36.132 -67.2209 0.610973 16.839 -0.090434 -56.687 4.87385 -4.98615 -4.04454 -22.9293 14.3582 0.0 0.0 0.0 -4.43485 10.5861 5.17386 -9.90466 0.279383 1.49249 36.3309 16.9191 -4.61792 -27.3949 0.0 0.0 -0.0 0.0 -0.0 29.5279 20.6348 -10.0442 -42.2695 0.617427 -6.31303 13.4289 -16.0176 1.90529 -11.1253 0.0 0.0 0.0 0.0 0.0 
1551.48 727.025 -1446.33 1.74679 72.1394 -4.64346 1.32559 0.370512 3.56875 1.33266 0.142822 3.58506 1.34254 -0.531458 3.54838 1.32497 0.0352367 3.58773 -18.128 14.9154 -8.87311 -19.4792 33.4041 -2.01495 -0.0 0.0 -0.0 -9.31975 14.5095 -13.778 28.0868 -22.6968 69.8264 2.22717 -47.8046 0.987152 -26.2124 -1.61793 2.9053 0.428464 13.9471 8.42285 -0.0 0.0 -0.0 7.65962 -1.84366 -14.8771 -29.8193 35.4922 -66.8766 0.584334 16.1439 -0.0828718 -56.5441 4.85636 -4.98066 -4.03788 -22.8775 14.3511 0.0 0.0 0.0 -5.75479 10.8014 5.46116 -8.85427 0.262046 1.33224 36.0948 19.4035 -4.63953 -27.4893 0.0 0.0 -0.0 0.0 -0.0 32.4719 19.3309 -10.1661 -41.2752 0.549884 -6.17586 13.3715 -15.6399 1.89575 -10.9716 0.0 0.0 0.0 0.0 0.0 
1539.94 722.771 -1446.27 0.866263 71.1437 -3.5202 1.30156 0.359127 3.48626 1.30831 0.136699 3.50202 1.3176 -0.5234 3.46543 1.30085 0.0301183 3.50455 -18.4747 14.8638 -9.33992 -19.864 33.5113 -2.36172 -0.0 0.0 -0.0 -9.05711 14.2159 -13.4232 29.375 -22.5406 68.7509 2.27686 -48.4327 1.02415 -26.2049 -1.61729 2.90459 0.308336 13.7656 7.59471 -0.0 0.0 -0.0 7.77758 -2.00108 -15.1058 -30.4706 35.244 -66.418 0.525182 14.583 -0.0671984 -56.416 4.8407 -4.9757 -4.00839 -22.6292 14.3313 0.0 0.0 0.0 -6.94567 10.9126 5.84301 -7.35472 0.23221 1.10407 35.6878 18.754 -4.58615 -27.8914 0.0 0.0 -0.0 0.0 -0.0 34.5712 18.3093 -10.4372 -38.9232 0.399685 -5.84695 13.4674 -15.1754 1.90659 -10.8934 0.0 0.0 0.0 0.0 0.0 
1519.47 719.524 -1438.27 -2.14249 70.6269 -0.931925 1.29878 0.294815 3.46403 1.30545 0.0739284 3.47576 1.31079 -0.58063 3.42777 1.2944 -0.0323318 3.47639 -17.0369 14.3522 -10.6215 -18.1131 33.4178 -4.28566 -0.0 0.0 -0.0 -7.92004 13.4726 -11.6847 30.4031 -22.1741 68.2044 2.37331 -49.6088 1.09697 -26.8648 -1.67445 2.96692 -0.134058 14.1768 4.9763 -0.0 0.0 -0.0 8.01587 -2.80005 -15.5525 -32.2435 34.9013 -64.2171 0.449436 12.5517 -0.0494267 -55.9722 4.78652 -4.95824 -4.03846 -21.7472 15.071 0.0 0.0 0.0 -8.56943 11.2499 7.87863 -2.03987 0.0785993 0.303167 36.2335 16.9972 -4.60963 -29.163 0.0 0.0 -0.0 0.0 -0.0 35.0152 18.1772 -10.1078 -23.5798 -0.235985 -3.58534 7.17532 -19.6464 1.05085 -12.7185 0.0 0.0 0.0 0.0 0.0 
1504.87 714.661 -1433.6 -4.3514 69.952 1.20106 1.32606 0.516115 3.35219 1.33226 0.301886 3.3782 1.35108 -0.3356 3.37502 1.33524 0.201318 3.38567 -15.9768 13.9881 -11.424 -16.8243 33.3217 -5.56167 -0.0 0.0 -0.0 -7.44439 13.505 -10.8467 31.0502 -22.2808 68.0159 2.57419 -51.8877 1.25255 -27.7446 -1.7518 3.04901 -0.310025 14.0631 3.82984 -0.0 0.0 -0.0 8.05888 -2.58143 -15.6434 -33.1615 34.6766 -63.6674 0.352565 9.907 -0.0305572 -55.1161 4.68238 -4.92337 -3.98314 -20.5672 15.4746 0.0 0.0 0.0 -9.34419 10.8436 8.84322 0.29423 -0.0122273 -0.0434962 36.0738 16.451 -4.58522 -30.0304 0.0 0.0 -0.0 0.0 -0.0 34.9173 17.7437 -9.95421 -11.1437 -0.296052 -1.68187 3.19477 -20.5379 0.474568 -13.8594 0.0 0.0 0.0 0.0 0.0 
1489.08 711.552 -1431.09 -6.9417 69.7971 3.4964 1.30317 0.564792 3.27359 1.30906 0.355457 3.30285 1.33063 -0.26995 3.31093 1.31542 0.256043 3.31203 -15.3119 13.626 -12.3583 -15.9802 33.2692 -6.83134 -0.0 0.0 -0.0 -7.20366 13.0039 -10.5824 31.3321 -22.3008 68.1102 2.73532 -53.5626 1.38078 -28.2898 -1.80035 3.09928 -0.533198 14.1093 2.45535 -0.0 0.0 -0.0 8.35215 -2.55505 -16.2213 -33.8432 34.2136 -62.8821 0.250206 7.06565 -0.0154472 -54.4107 4.59696 -4.89347 -3.924 -19.9613 15.4861 0.0 0.0 0.0 -10.6438 10.6513 10.4866 3.44557 -0.157146 -0.505245 36.6337 14.9335 -4.61791 -30.3976 0.0 0.0 -0.0 0.0 -0.0 35.5571 17.728 -10.0435 -3.71156 -0.134924 -0.553531 0.149533 -22.0607 0.0225111 -14.7666 0.0 0.0 0.0 0.0 0.0 
1472.53 706.537 -1424.71 -6.67653 69.6509 2.49132 1.20984 0.656703 3.36135 1.21602 0.441607 3.39627 1.24357 -0.20791 3.41852 1.22742 0.334269 3.4085 -15.5763 13.8089 -14.3305 -16.2297 34.7217 -8.56722 -0.0 0.0 -0.0 -7.07899 14.4918 -9.91643 31.8044 -22.4398 69.3554 3.14926 -57.3275 1.72189 -30.3897 -1.99181 3.28857 -0.68343 13.4877 1.25427 -0.0 0.0 -0.0 8.55585 -1.7236 -16.6541 -34.4355 34.3089 -61.8818 0.212822 6.01837 -0.0111877 -54.2632 4.57915 -4.88709 -3.77421 -18.7535 15.2926 0.0 0.0 0.0 -9.6098 10.7462 11.0736 -2.57645 0.0974747 0.383352 40.6749 13.9886 -4.97796 -29.0395 0.0 0.0 -0.0 0.0 -0.0 35.7159 18.1979 -9.04239 -0.837322 -0.0335706 -0.124111 -2.66867 -19.9869 -0.40089 -15.8616 0.0 0.0 0.0 0.0 0.0 
1450.88 697.692 -1427.33 -6.00906 69.2516 1.78643 1.05363 0.744807 3.30156 1.05953 0.533331 3.3422 1.09236 -0.116391 3.38244 1.07664 0.418956 3.35844 -15.2948 14.886 -15.0469 -16.0452 37.2331 -8.9042 -0.0 0.0 -0.0 -7.91186 16.131 -10.7956 30.9711 -24.3114 70.0375 3.69328 -61.3236 2.19008 -28.684 -1.83576 3.13534 -0.988993 14.4826 -0.222462 -0.0 0.0 -0.0 8.79044 -0.603196 -17.1621 -34.4318 33.8425 -61.9271 0.202781 5.73636 -0.0101595 -53.5687 4.49549 -4.85641 -3.56353 -19.3457 13.627 0.0 0.0 0.0 -10.3397 5.87742 10.4088 -6.12843 0.203377 0.918099 42.0748 14.2918 -5.10331 -27.1266 0.0 0.0 -0.0 0.0 -0.0 35.5213 18.4515 -8.34159 1.17979 0.0503773 0.174031 -3.01556 -16.3849 -0.448479 -14.3689 0.0 0.0 0.0 0.0 0.0 
1420.23 696.204 -1429.69 -3.03353 69.6571 -1.1565 0.831498 0.536954 3.28929 0.837458 0.326678 3.31675 0.858203 -0.328263 3.31659 0.84291 0.199352 3.32682 -14.6362 14.9807 -15.7897 -15.2365 37.9751 -9.85117 -0.0 0.0 -0.0 -8.66133 18.1134 -11.3411 30.9479 -26.3246 71.6533 3.9808 -63.0921 2.44445 -27.6047 -1.73942 3.03604 -1.10023 14.9111 -0.724009 -0.0 0.0 -0.0 8.57061 -0.0825603 -16.7337 -34.861 34.6949 -62.2108 0.255579 7.2158 -0.016115 -53.8019 4.52355 -4.86682 -3.47449 -19.7411 12.8462 0.0 0.0 0.0 -11.6226 4.16374 10.3377 -11.826 0.303482 1.78629 42.2382 15.2219 -5.13183 -23.2164 0.0 0.0 -0.0 0.0 -0.0 35.4485 19.1423 -7.34847 2.10191 0.0922451 0.309323 -2.41883 -11.7762 -0.356489 -14.3845 0.0 0.0 0.0 0.0 0.0 
